<?xml version="1.0" encoding="utf-8"?>
<svg version="1.1" xmlns:xlink="http://www.w3.org/1999/xlink" width="29px" height="36px" xmlns="http://www.w3.org/2000/svg">
  <g transform="matrix(1 0 0 1 -311 -593 )">
    <path d="M 24.1666666666667 10.2857142857143  C 24.1666666666667 12.2544642857143  23.6694878472222 14.0758928571429  22.6751302083333 15.75  C 23.2667100694444 15.9375  23.8299696180556 16.1919642857143  24.3649088541667 16.5133928571429  C 24.8998480902778 16.8348214285714  25.4599609375 17.3236607142857  26.0452473958333 17.9799107142857  C 26.6305338541667 18.6361607142857  27.130859375 19.4095982142857  27.5462239583333 20.3002232142857  C 27.9615885416667 21.1908482142857  28.3077256944444 22.3426339285714  28.5846354166667 23.7555803571429  C 28.8615451388889 25.1685267857143  29 26.7522321428571  29 28.5066964285714  C 29 30.5691964285714  28.3706597222222 32.3337053571429  27.1119791666667 33.8002232142857  C 25.8532986111111 35.2667410714286  24.3365885416667 36  22.5618489583333 36  L 6.43815104166667 36  C 4.66341145833333 36  3.14670138888889 35.2667410714286  1.88802083333333 33.8002232142857  C 0.629340277777778 32.3337053571429  0 30.5691964285714  0 28.5066964285714  C 0 26.7522321428571  0.138454861111111 25.1685267857143  0.415364583333333 23.7555803571429  C 0.692274305555556 22.3426339285714  1.03841145833333 21.1908482142857  1.45377604166667 20.3002232142857  C 1.869140625 19.4095982142857  2.36946614583333 18.6361607142857  2.95475260416667 17.9799107142857  C 3.5400390625 17.3236607142857  4.10015190972222 16.8348214285714  4.63509114583333 16.5133928571429  C 5.17003038194444 16.1919642857143  5.73328993055556 15.9375  6.32486979166667 15.75  C 5.33051215277778 14.0758928571429  4.83333333333333 12.2544642857143  4.83333333333333 10.2857142857143  C 4.83333333333333 8.89285714285714  5.08821614583333 7.56361607142857  5.59798177083333 6.29799107142857  C 6.10774739583333 5.03236607142857  6.796875 3.9375  7.66536458333333 3.01339285714286  C 8.53385416666667 2.08928571428571  9.56282552083333 1.35602678571429  10.7522786458333 0.81361607142857  C 11.9417317708333 0.271205357142855  13.1909722222222 0  14.5 0  C 15.8090277777778 0  17.0582682291667 0.271205357142855  18.2477213541667 0.81361607142857  C 19.4371744791667 1.35602678571429  20.4661458333333 2.08928571428571  21.3346354166667 3.01339285714286  C 22.203125 3.9375  22.8922526041667 5.03236607142857  23.4020182291667 6.29799107142857  C 23.9117838541667 7.56361607142857  24.1666666666667 8.89285714285714  24.1666666666667 10.2857142857143  Z M 19.6259765625 4.83147321428572  C 18.2099609375 3.32477678571429  16.5013020833333 2.57142857142857  14.5 2.57142857142857  C 12.4986979166667 2.57142857142857  10.7900390625 3.32477678571429  9.3740234375 4.83147321428572  C 7.9580078125 6.33816964285714  7.25 8.15625  7.25 10.2857142857143  C 7.25 12.4151785714286  7.9580078125 14.2332589285714  9.3740234375 15.7399553571429  C 10.7900390625 17.2466517857143  12.4986979166667 18  14.5 18  C 16.5013020833333 18  18.2099609375 17.2466517857143  19.6259765625 15.7399553571429  C 21.0419921875 14.2332589285714  21.75 12.4151785714286  21.75 10.2857142857143  C 21.75 8.15625  21.0419921875 6.33816964285714  19.6259765625 4.83147321428572  Z M 6.43815104166667 33  L 22.5618489583333 33  C 23.6694878472222 33.4285714285714  24.6166449652778 32.9497767857143  25.4033203125 31.9921875  C 26.1899956597222 31.0345982142857  26.5833333333333 29.8727678571429  26.5833333333333 28.5066964285714  C 26.5833333333333 25.3058035714286  26.0893012152778 22.78125  25.1012369791667 20.9330357142857  C 24.1131727430556 19.0848214285714  22.6940104166667 18.1138392857143  20.84375 18.0200892857143  C 19.0186631944444 19.7209821428571  16.9040798611111 20.5714285714286  14.5 20.5714285714286  C 12.0959201388889 20.5714285714286  9.98133680555556 19.7209821428571  8.15625 18.0200892857143  C 6.30598958333333 18.1138392857143  4.88682725694444 19.0848214285714  3.89876302083333 20.9330357142857  C 2.91069878472222 22.78125  2.41666666666667 25.3058035714286  2.41666666666667 28.5066964285714  C 2.41666666666667 29.8727678571429  2.81000434027778 31.0345982142857  3.5966796875 31.9921875  C 4.38335503472222 32.9497767857143  5.33051215277778 33.4285714285714  6.43815104166667 33  Z " fill-rule="nonzero" fill="#000000" stroke="none" transform="matrix(1 0 0 1 311 593 )" />
  </g>
</svg>