<svg class="icon" viewBox="0 0 1024 1024" version="1.1" xmlns="http://www.w3.org/2000/svg" p-id="1608" height="128" width="128"><path d="M271.059 451.765v-90.353c0-135.349 106.827-240.941 240.941-240.941s240.941 105.592 240.941 240.94v90.354a30.118 30.118 0 0 0 60.235 0v-90.353c0-168.78-133.963-301.177-301.176-301.177S210.824 192.632 210.824 361.412v90.353a30.118 30.118 0 0 0 60.235 0z m-90.353 60.054a30.118 30.118 0 0 1 30.268-29.937h602.052a30.118 30.118 0 0 1 30.268 29.937v361.773a30.118 30.118 0 0 1-30.268 29.937H210.974a30.118 30.118 0 0 1-30.268-29.937V511.82z m-60.235 0v361.773a90.353 90.353 0 0 0 90.503 90.173h602.052a90.353 90.353 0 0 0 90.503-90.173V511.82a90.353 90.353 0 0 0-90.503-90.172H210.974a90.353 90.353 0 0 0-90.503 90.172zM481.882 632.47v120.471a30.118 30.118 0 0 0 60.236 0v-120.47a30.118 30.118 0 0 0-60.236 0z" p-id="1609"></path></svg>