<svg class="icon" viewBox="0 0 1024 1024" version="1.1" xmlns="http://www.w3.org/2000/svg" p-id="1471" height="128" width="128"><path d="M1614.90966652 38.786v945.597c-1.137-0.02-2.272-0.054-3.409-0.055-86.1-0.002-172.199-0.002-258.298-0.002h-3.665v-10.587c-7.236-0.15-14.17 0.058-21.309-0.124v-21.244H1317.96666652c-0.562-2.704-0.48-879.917 0.101-882.004h10.289V49.229h21.188V38.634h3.183c86.505 0 173.011 0 259.517 0.006 0.889 0 1.776 0.094 2.665 0.146z" fill="#d4237a" p-id="1472"></path><path d="M676.243 38.786c-0.889-0.051-1.776-0.146-2.665-0.146-86.506-0.007-173.012-0.006-259.517-0.006h-3.183v10.595H389.69v21.138h-10.289c-0.581 2.087-0.662 879.3-0.101 882.004h10.262v21.244c7.138 0.182 14.072-0.026 21.309 0.124v10.587h3.665c86.099 0 172.199 0 258.298 0.002 1.137 0.001 2.272 0.035 3.409 0.055v31.683H400.362l-0.138-10.59h-7.35c-2.274 0-4.55 0.034-6.823-0.01-2.31-0.045-4.644 0.209-7.173-0.216v-10.173c-3.603-0.333-7 0.128-10.624-0.33v-10.486h-10.533v-21.324h-10.976V59.745c1.783 0.034 3.566 0.093 5.35 0.095 1.824 0.002 3.648-0.051 5.55-0.082 0.154-7.19-0.079-14.051 0.14-21.017 3.672-0.244 7.057 0.108 10.618-0.251V28.019h10.589v-10.69h21.369V6.615h275.881l0.001 32.171z" fill="#d4237a" p-id="1473"></path><path d="M-26.3046666 6.616V17.33h-21.369v10.69h-10.589v10.471c-3.561 0.359-6.946 0.007-10.618 0.251-0.219 6.965 0.014 13.827-0.14 21.017-1.902 0.03-3.727 0.083-5.55 0.082-1.783-0.002-3.566-0.061-5.35-0.095V6.617l53.616-0.001zM-79.9206666 962.937h10.976v21.324h10.533v10.486c3.623 0.458 7.021-0.003 10.624 0.33v10.173c2.529 0.425 4.863 0.171 7.173 0.216 2.273 0.044 4.549 0.01 6.823 0.01h7.35l0.138 10.59h-53.616l-0.001-53.129z" fill="#d4237a" p-id="1474"></path></svg>