<?xml version="1.0" encoding="utf-8"?>
<svg version="1.1" xmlns:xlink="http://www.w3.org/1999/xlink" width="86px" height="86px" xmlns="http://www.w3.org/2000/svg">
  <g transform="matrix(1 0 0 1 -497 -300 )">
    <path d="M 26.2991071428571 3.40736607142857  C 31.6101190476191 1.13578869047619  37.1770833333333 0  43 0  C 48.8229166666667 0  54.389880952381 1.13578869047619  59.7008928571429 3.40736607142857  C 65.0119047619048 5.67894345238095  69.5870535714286 8.734375  73.4263392857143 12.5736607142857  C 77.265625 16.4129464285714  80.3210565476191 20.9880952380952  82.5926339285714 26.2991071428571  C 84.8642113095238 31.610119047619  86 37.1770833333333  86 43  C 86 48.7909226190476  84.8722098214286 54.3418898809524  82.6166294642857 59.6529017857143  C 80.3610491071429 64.9639136904762  77.3136160714286 69.5390625  73.4743303571429 73.3783482142857  C 69.6350446428571 77.2176339285714  65.0598958333333 80.2810639880952  59.7488839285714 82.5686383928571  C 54.4378720238095 84.8562127976191  48.8549107142857 86  43 86  C 37.1450892857143 86  31.5621279761905 84.8642113095238  26.2511160714286 82.5926339285714  C 20.9401041666667 80.3210565476191  16.3729538690476 77.2576264880952  12.5496651785714 73.40234375  C 8.72637648809524 69.5470610119048  5.67894345238095 64.9719122023809  3.40736607142857 59.6768973214286  C 1.13578869047619 54.3818824404762  0 48.8229166666667  0 43  C 0 37.1770833333333  1.13578869047619 31.610119047619  3.40736607142857 26.2991071428571  C 5.67894345238095 20.9880952380952  8.734375 16.4129464285714  12.5736607142857 12.5736607142857  C 16.4129464285714 8.734375  20.9880952380952 5.67894345238095  26.2991071428571 3.40736607142857  Z M 58.0212053571429 49.1428571428571  C 65.6997767857143 49.1428571428571  70.5948660714286 54.3738839285714  72.7064732142857 64.8359375  C 77.4735863095238 58.2771577380952  79.8571428571429 50.9985119047619  79.8571428571429 43  C 79.8571428571429 38.0089285714286  78.8813244047619 33.2418154761905  76.9296875 28.6986607142857  C 74.9780505952381 24.1555059523809  72.3545386904762 20.2362351190476  69.0591517857143 16.9408482142857  C 65.7637648809524 13.6454613095238  61.8444940476191 11.0219494047619  57.3013392857143 9.0703125  C 52.7581845238095 7.11867559523809  47.9910714285714 6.14285714285714  43 6.14285714285714  C 38.0089285714286 6.14285714285714  33.2418154761905 7.11867559523809  28.6986607142857 9.0703125  C 24.155505952381 11.0219494047619  20.2362351190476 13.6454613095238  16.9408482142857 16.9408482142857  C 13.6454613095238 20.2362351190476  11.0219494047619 24.1555059523809  9.0703125 28.6986607142857  C 7.1186755952381 33.2418154761905  6.14285714285714 38.0089285714286  6.14285714285714 43  C 6.14285714285714 50.9985119047619  8.52641369047619 58.2771577380952  13.2935267857143 64.8359375  C 15.4051339285714 54.3738839285714  20.3002232142857 49.1428571428571  27.9787946428571 49.1428571428571  C 32.1700148809524 53.2380952380952  37.1770833333333 55.2857142857143  43 55.2857142857143  C 48.8229166666667 55.2857142857143  53.8299851190476 53.2380952380952  58.0212053571429 49.1428571428571  Z M 56.0295758928571 46.8152901785714  C 59.62890625 43.2159598214286  61.4285714285714 38.8727678571429  61.4285714285714 33.7857142857143  C 61.4285714285714 28.6986607142857  59.62890625 24.35546875  56.0295758928571 20.7561383928571  C 52.4302455357143 17.1568080357143  48.0870535714286 15.3571428571429  43 15.3571428571429  C 37.9129464285714 15.3571428571429  33.5697544642857 17.1568080357143  29.9704241071429 20.7561383928571  C 26.37109375 24.35546875  24.5714285714286 28.6986607142857  24.5714285714286 33.7857142857143  C 24.5714285714286 38.8727678571429  26.37109375 43.2159598214286  29.9704241071429 46.8152901785714  C 33.5697544642857 50.4146205357143  37.9129464285714 52.2142857142857  43 52.2142857142857  C 48.0870535714286 52.2142857142857  52.4302455357143 50.4146205357143  56.0295758928571 46.8152901785714  Z " fill-rule="nonzero" fill="#000000" stroke="none" transform="matrix(1 0 0 1 497 300 )" />
  </g>
</svg>