<svg class="icon" viewBox="0 0 1363 1024" version="1.1" xmlns="http://www.w3.org/2000/svg" p-id="1551" height="128" width="128"><path d="M770.835878 182.855234c5.897432 0 10.67162 5.614595 10.671621 12.550176v445.705479c0 6.935581-4.774189 12.550176-10.671621 12.550176H416.005309c-2.737601 0-5.265304-1.238323-7.301891-3.385128L210.579857 432.211974c-2.738412-2.971813-3.369729-6.522266-3.369729-8.91706s0.491115-5.945247 3.088513-9.082385l193.562513-227.641516c2.035777-2.394793 4.703682-3.633116 7.5126-3.633116h359.462124m0-49.623684h-359.462124c-13.971654 0-27.451382 6.523077-37.350671 18.164771L180.530266 379.1205c-21.062835 24.77051-20.500403 65.229145 1.264256 89.173837l198.125182 218.146626c9.759087 10.734023 22.677193 16.761122 36.086415 16.761122h354.899455c29.136247 0 52.796481-27.825796 52.796481-62.091196V195.40541c-0.070507-34.2654-23.72993-62.091196-52.866177-62.091197z" fill="" p-id="1552"></path><path d="M691.69424 552.139657c-6.24024 0-12.48048-2.35022-17.18092-7.131702L449.459478 320.035154c-9.481923-9.481923-9.481923-24.879917 0-34.361839s24.879917-9.481923 34.361839 0L708.87516 510.565073c9.481923 9.481923 9.481923 24.879917 0 34.36184-4.781482 4.781482-10.94068 7.212745-17.18092 7.212744z" fill="" p-id="1553"></path><path d="M467.53186 550.6809c-6.24024 0-12.48048-2.35022-17.18092-7.131703-9.481923-9.481923-9.481923-24.879917 0-34.361839l224.972801-224.972801c9.481923-9.481923 24.879917-9.481923 34.36184 0s9.481923 24.879917 0 34.36184L484.71278 543.63024c-4.781482 4.70044-11.021722 7.050661-17.18092 7.05066z" fill="" p-id="1554"></path></svg>