<?xml version="1.0" encoding="utf-8"?>
<svg version="1.1" xmlns:xlink="http://www.w3.org/1999/xlink" width="14px" height="14px" xmlns="http://www.w3.org/2000/svg">
  <g transform="matrix(1 0 0 1 -500 -736 )">
    <path d="M 507 736  C 510.92 736  514 739.08  514 743  C 514 746.92  510.92 750  507 750  C 503.08 750  500 746.92  500 743  C 500 739.08  503.08 736  507 736  Z " fill-rule="nonzero" fill="#ffffff" stroke="none" />
    <path d="M 507 736.5  C 510.64 736.5  513.5 739.36  513.5 743  C 513.5 746.64  510.64 749.5  507 749.5  C 503.36 749.5  500.5 746.64  500.5 743  C 500.5 739.36  503.36 736.5  507 736.5  Z " stroke-width="1" stroke="#797979" fill="none" />
  </g>
</svg>