<?xml version="1.0" encoding="utf-8"?>
<svg version="1.1" xmlns:xlink="http://www.w3.org/1999/xlink" width="46px" height="46px" xmlns="http://www.w3.org/2000/svg">
  <g transform="matrix(1 0 0 1 -63 -587 )">
    <path d="M 14.0669642857143 1.82254464285714  C 16.9077380952381 0.607514880952381  19.8854166666667 0  23 0  C 26.1145833333333 0  29.0922619047619 0.607514880952381  31.9330357142857 1.82254464285714  C 34.7738095238095 3.0375744047619  37.2209821428571 4.671875  39.2745535714286 6.72544642857143  C 41.328125 8.77901785714286  42.9624255952381 11.2261904761905  44.1774553571429 14.0669642857143  C 45.3924851190476 16.9077380952381  46 19.8854166666667  46 23  C 46 26.0974702380952  45.3967633928571 29.0665922619048  44.1902901785714 31.9073660714286  C 42.9838169642857 34.7481398809524  41.3537946428571 37.1953125  39.3002232142857 39.2488839285714  C 37.2466517857143 41.3024553571429  34.7994791666667 42.9410342261905  31.9587053571429 44.1646205357143  C 29.1179315476191 45.3882068452381  26.1316964285714 46  23 46  C 19.8683035714286 46  16.882068452381 45.3924851190476  14.0412946428571 44.1774553571429  C 11.2005208333333 42.9624255952381  8.75762648809524 41.3238467261905  6.71261160714286 39.26171875  C 4.66759672619048 37.1995907738095  3.0375744047619 34.7524181547619  1.82254464285714 31.9202008928571  C 0.607514880952381 29.0879836309524  0 26.1145833333333  0 23  C 0 19.8854166666667  0.607514880952381 16.9077380952381  1.82254464285714 14.0669642857143  C 3.0375744047619 11.2261904761905  4.671875 8.77901785714286  6.72544642857143 6.72544642857143  C 8.77901785714286 4.671875  11.2261904761905 3.0375744047619  14.0669642857143 1.82254464285714  Z M 31.0345982142857 26.2857142857143  C 35.1417410714286 26.2857142857143  37.7600446428571 29.0837053571429  38.8895089285714 34.6796875  C 41.4393601190476 31.1715029761905  42.7142857142857 27.2782738095238  42.7142857142857 23  C 42.7142857142857 20.3303571428571  42.1923363095238 17.7805059523809  41.1484375 15.3504464285714  C 40.1045386904762 12.9203869047619  38.7012648809524 10.8240327380952  36.9386160714286 9.06138392857143  C 35.1759672619048 7.29873511904762  33.0796130952381 5.89546130952381  30.6495535714286 4.8515625  C 28.2194940476191 3.80766369047619  25.6696428571429 3.28571428571428  23 3.28571428571428  C 20.3303571428571 3.28571428571428  17.780505952381 3.80766369047619  15.3504464285714 4.8515625  C 12.9203869047619 5.89546130952381  10.8240327380952 7.29873511904762  9.06138392857143 9.06138392857143  C 7.29873511904762 10.8240327380952  5.89546130952381 12.9203869047619  4.8515625 15.3504464285714  C 3.80766369047619 17.7805059523809  3.28571428571429 20.3303571428571  3.28571428571429 23  C 3.28571428571429 27.2782738095238  4.56063988095238 31.1715029761905  7.11049107142857 34.6796875  C 8.23995535714286 29.0837053571429  10.8582589285714 26.2857142857143  14.9654017857143 26.2857142857143  C 17.2072172619048 28.4761904761905  19.8854166666667 29.5714285714286  23 29.5714285714286  C 26.1145833333333 29.5714285714286  28.7927827380952 28.4761904761905  31.0345982142857 26.2857142857143  Z M 29.9693080357143 25.0407366071429  C 31.89453125 23.1155133928571  32.8571428571429 20.7924107142857  32.8571428571429 18.0714285714286  C 32.8571428571429 15.3504464285714  31.89453125 13.02734375  29.9693080357143 11.1021205357143  C 28.0440848214286 9.17689732142857  25.7209821428571 8.21428571428572  23 8.21428571428572  C 20.2790178571429 8.21428571428572  17.9559151785714 9.17689732142857  16.0306919642857 11.1021205357143  C 14.10546875 13.02734375  13.1428571428571 15.3504464285714  13.1428571428571 18.0714285714286  C 13.1428571428571 20.7924107142857  14.10546875 23.1155133928571  16.0306919642857 25.0407366071429  C 17.9559151785714 26.9659598214286  20.2790178571429 27.9285714285714  23 27.9285714285714  C 25.7209821428571 27.9285714285714  28.0440848214286 26.9659598214286  29.9693080357143 25.0407366071429  Z " fill-rule="nonzero" fill="#000000" stroke="none" transform="matrix(1 0 0 1 63 587 )" />
  </g>
</svg>