<?xml version="1.0" encoding="utf-8"?>
<svg version="1.1" xmlns:xlink="http://www.w3.org/1999/xlink" width="42px" height="42px" xmlns="http://www.w3.org/2000/svg">
  <defs>
    <path d="M 0 0  L 1024 0  L 1024 1024  L 0 1024  Z " fill-rule="evenodd" fill="black" id="path7" />
    <clipPath id="clip8">
      <use xlink:href="#path7" />
    </clipPath>
    <filter x="-50.00%" y="-50.00%" width="200.00%" height="200.00%" filterUnits="objectBoundingBox" id="filter9">
      <feColorMatrix type="matrix" values="1 0 0 0 0.991111111111111  0 1 0 0 0.991111111111111  0 0 1 0 0.991111111111111  0 0 0 1 0  " in="SourceGraphic" />
    </filter>
  </defs>
  <g transform="matrix(1 0 0 1 -153 -750 )">
    <g transform="matrix(0.041015625 0 0 0.041015625 153 750 )" clip-path="url(#clip8)" filter="url(#filter9)">
      <path d="M307.704433 943.29064c-45.399015 0-85.753695-40.35468-85.753694-85.753694V393.458128c0-10.08867 5.044335-15.133005 10.08867-20.17734 5.044335-5.044335 15.133005-5.044335 25.221675 0 5.044335 5.044335 10.08867 10.08867 10.08867 20.17734V857.536946c0 10.08867 5.044335 20.17734 10.08867 25.221675 5.044335 5.044335 15.133005 10.08867 25.221675 10.08867h433.812807c10.08867 0 20.17734-5.044335 25.221675-10.08867 5.044335-5.044335 10.08867-15.133005 10.08867-25.221675V393.458128c0-10.08867 5.044335-15.133005 10.08867-20.17734 5.044335-5.044335 15.133005-5.044335 25.221675 0 5.044335 5.044335 10.08867 10.08867 10.08867 20.17734V857.536946c0 45.399015-40.35468 85.753695-85.753695 85.753694H307.704433z m297.615764-166.463054c-10.08867 0-20.17734-10.08867-20.17734-20.17734V453.990148c0-10.08867 5.044335-15.133005 10.08867-20.17734 5.044335-5.044335 15.133005-5.044335 20.17734 0 5.044335 5.044335 10.08867 10.08867 10.08867 20.17734v302.660098c0 10.08867-10.08867 20.17734-20.17734 20.17734z m-161.418719 0c-10.08867 0-20.17734-10.08867-20.17734-20.17734V453.990148c0-10.08867 10.08867-20.17734 20.17734-20.17734s20.17734 10.08867 20.17734 20.17734v302.660098c0 10.08867-10.08867 20.17734-20.17734 20.17734zM166.463054 317.793103c-10.08867 0-20.17734-5.044335-20.17734-20.177339 0-10.08867 10.08867-20.17734 20.17734-20.17734h146.285714V216.906404c0-40.35468 35.310345-75.665025 75.665025-75.665025H660.807882c40.35468 0 75.665025 35.310345 75.665024 75.665025v60.53202h141.24138c10.08867 0 20.17734 10.08867 20.17734 20.17734s-10.08867 20.17734-20.17734 20.177339H166.463054z m221.950739-136.197044c-10.08867 0-15.133005 5.044335-25.221675 10.08867-5.044335 5.044335-10.08867 15.133005-10.08867 25.221675v60.53202h343.014779V216.906404c0-10.08867-5.044335-15.133005-10.08867-25.221675-5.044335-5.044335-15.133005-10.08867-25.221675-10.08867H388.413793z m0 0" p-id="3979"></path>
    </g>
  </g>
</svg>